<?xml version="1.0"?>
<svg width="800" height="600" xmlns="http://www.w3.org/2000/svg" xmlns:svg="http://www.w3.org/2000/svg" preserveAspectRatio="xMidYMid meet" version="1.0">
 <g class="layer">
  <title>Layer 1</title>
  <g fill="#000000" id="svg_1" transform="matrix(0.1 0 0 -0.1 0 0)">
   <path d="m4706,-555c-49,-17 -116,-83 -145,-141l-23,-45l-40,42c-50,51 -92,69 -163,69c-132,0 -222,-101 -274,-308c-11,-43 -24,-111 -27,-150c-5,-49 -11,-72 -20,-72c-7,0 -85,16 -174,35c-89,19 -163,35 -166,35c-2,0 -4,-29 -4,-65c0,-36 -1,-65 -2,-65c-2,0 -75,9 -163,20c-88,11 -174,20 -191,20l-32,0l5,-232l5,-233l-46,-19c-28,-11 -63,-37 -88,-65l-43,-48l-53,29c-161,84 -317,-35 -377,-289c-10,-40 -21,-73 -25,-73c-4,0 -71,22 -148,50c-78,27 -142,47 -142,43c0,-3 19,-29 43,-57c79,-95 77,-88 21,-81c-339,40 -449,53 -451,51c-2,-1 146,-67 327,-145l330,-143l1,-62c0,-33 4,-83 7,-111c6,-45 10,-50 35,-53c31,-4 30,-8 27,106c-1,45 2,82 7,82c4,0 119,-48 256,-107l247,-107l-5,-30c-2,-17 -6,-69 -7,-116l-3,-85l30,0l30,0l10,101l10,101l260,-113l260,-113l-3,-68c-1,-37 -41,-716 -87,-1507c-47,-791 -84,-1441 -82,-1443c5,-4 919,238 930,247c4,3 0,104 -8,224c-9,119 -15,224 -13,231c2,10 102,-44 313,-169l309,-183l479,193c264,106 482,196 485,199c7,7 -262,3602 -270,3611c-4,3 -171,41 -373,85c-202,43 -371,82 -376,85c-5,3 -9,67 -9,142c0,302 -57,534 -156,636c-68,70 -152,92 -238,61zm150,-74c93,-57 149,-211 174,-476c13,-138 13,-275 1,-275c-10,0 -326,68 -352,76c-13,3 -18,24 -23,87c-10,122 -33,254 -56,331c-20,65 -21,69 -4,112c23,61 67,120 107,144c42,26 112,26 153,1zm-437,-89c40,-29 92,-102 87,-121c-15,-46 -36,-202 -42,-305c-6,-100 -9,-116 -23,-112c-9,3 -90,21 -180,41c-91,19 -167,37 -169,40c-8,7 27,211 48,277c53,171 181,253 279,180zm167,-470l7,-94l-29,4l-29,3l1,126c1,69 5,139 9,155c8,26 9,23 21,-36c7,-36 16,-107 20,-158zm-1292,-564c3,-18 7,-155 9,-305c4,-206 2,-270 -7,-267c-7,3 -17,48 -24,108c-15,130 -44,243 -81,323l-29,61l24,35c25,37 71,76 91,77c7,0 14,-15 17,-32zm-241,-63c31,-22 31,-32 2,-135c-8,-30 -21,-106 -27,-168c-7,-71 -16,-111 -22,-109c-6,2 -69,23 -141,47c-71,23 -131,43 -132,44c-1,1 6,39 17,84c29,122 76,207 134,244c40,25 129,21 169,-7zm122,-233c19,-72 41,-230 33,-238c-4,-3 -31,2 -62,12l-56,18l0,67c0,66 24,232 37,253c8,12 28,-34 48,-112z" fill="#ff7f00" id="svg_2" stroke="#ff7f00"/>
  </g>
  <line fill="none" id="svg_8" stroke="#ff7f00" x1="198.4" x2="189.4" y1="212" y2="516"/>
  <line fill="none" id="svg_9" stroke="#ff7f00" x1="190.4" x2="362.4" y1="514.6" y2="589.6"/>
  <line fill="none" id="svg_10" stroke="#ff7f00" x1="391.4" x2="188.4" y1="282.6" y2="514.6"/>
 </g>
</svg>